<?xml version="1.0" encoding="UTF-8"?>
<svg width="40px" height="40px" viewBox="0 0 40 40" version="1.1" xmlns="http://www.w3.org/2000/svg" xmlns:xlink="http://www.w3.org/1999/xlink">
    <!-- Generator: Sketch 54.1 (76490) - https://sketchapp.com -->
    <title>water</title>
    <desc>Created with Sketch.</desc>
    <g id="water" stroke="none" stroke-width="1" fill="none" fill-rule="evenodd">
        <rect fill="#32C5FF" x="0" y="0" width="40" height="40"></rect>
        <g id="ocean" transform="translate(-3.000000, 2.000000)" fill="#00ACEA" fill-rule="nonzero">
            <path d="M29.37926,35 C26.2782353,35 24.7570646,33.285769 23.4112714,31.7428189 C22.0654782,30.1998688 21.1879185,29.2857143 19.1986263,29.2857143 C17.2093341,29.2857143 16.214632,30.3714778 14.9859811,31.7428189 C13.7573303,33.1142693 12.1190172,35 9.01799253,35 C5.91696787,35 4.39579712,33.285769 3.05000393,31.7428189 C2.38209092,30.9231642 1.56970981,30.2264468 0.651161447,29.6856979 C0.0694813417,29.4016516 -0.166259248,28.7109498 0.124580805,28.1428571 C0.415420857,27.5747645 1.12264263,27.3445306 1.70432273,27.6285769 C2.91393513,28.2846069 3.97012017,29.1798395 4.8053474,30.2571811 C6.03399823,31.6286316 7.02870033,32.7142857 9.01799253,32.7142857 C11.0072847,32.7142857 12.0019868,31.6285222 13.2306377,30.2571811 C14.4592885,28.8858401 16.0976016,27 19.1986263,27 C22.2996509,27 23.8208217,28.714231 25.1666149,30.2571811 C26.5122961,31.8000219 27.3899678,32.7142857 29.37926,32.7142857 C31.3685522,32.7142857 32.3632543,31.6285222 33.5919051,30.2571811 C34.820556,28.8857307 36.4588691,27 39.5598937,27 C42.6609184,27 44.2406603,28.771434 45.5278824,30.1999781 C46.0655501,30.9078517 46.7176724,31.5254912 47.4587154,32.0285058 C48.0080301,32.3756614 48.1652652,33.0919569 47.8098065,33.6285496 C47.4543477,34.1650329 46.7209201,34.3185951 46.1714934,33.9714395 C45.2630242,33.3489876 44.4544507,32.5979109 43.7726509,31.7428189 C42.544,30.3713684 41.5492979,29.2857143 39.5600057,29.2857143 C37.5707135,29.2857143 36.5760114,30.3714778 35.3473606,31.7428189 C34.1184858,33.1142693 32.4802847,35 29.37926,35 Z" id="Path"></path>
            <path d="M29.37926,26 C26.2782353,26 24.7570646,24.285769 23.4112714,22.7428189 C22.0655902,21.1999781 21.1879185,20.2857143 19.1986263,20.2857143 C17.2093341,20.2857143 16.214632,21.3714778 14.9859811,22.7428189 C13.7573303,24.1142693 12.1190172,26 9.01799253,26 C5.91696787,26 4.39579712,24.285769 3.05000393,22.7428189 C2.38209092,21.9231642 1.56970981,21.2264468 0.651161447,20.6856979 C0.0694813417,20.4016516 -0.166259248,19.7109498 0.124580805,19.1428571 C0.415420857,18.5747645 1.12264263,18.3445306 1.70432273,18.6285769 C2.91393513,19.2846069 3.97012017,20.1798395 4.8053474,21.2571811 C6.03399823,22.6286316 7.02870033,23.7142857 9.01799253,23.7142857 C11.0072847,23.7142857 12.0019868,22.6285222 13.2306377,21.2571811 C14.4592885,19.8857307 16.0976016,18 19.1986263,18 C22.2996509,18 23.8208217,19.714231 25.1666149,21.2571811 C26.5122961,22.8000219 27.3899678,23.7142857 29.37926,23.7142857 C31.3685522,23.7142857 32.3632543,22.6285222 33.5919051,21.2571811 C34.820556,19.8857307 36.4588691,18 39.5598937,18 C42.6609184,18 44.2406603,19.771434 45.5278824,21.1999781 C46.0655501,21.9078517 46.7176724,22.5254912 47.4587154,23.0285058 C48.0080301,23.3756614 48.1652652,24.0919569 47.8098065,24.6285496 C47.4543477,25.1650329 46.7209201,25.3185951 46.1714934,24.9714395 L46.1714934,24.9714395 C45.2630242,24.3489876 44.4544507,23.5979109 43.7726509,22.7428189 C42.544,21.3713684 41.5492979,20.2857143 39.5600057,20.2857143 C37.5707135,20.2857143 36.5760114,21.3714778 35.3473606,22.7428189 C34.1184858,24.1142693 32.4802847,26 29.37926,26 Z" id="Path"></path>
            <path d="M29.37926,17 C26.2782353,17 24.7570646,15.285769 23.4112714,13.7428189 C22.0654782,12.1998688 21.1879185,11.2857143 19.1986263,11.2857143 C17.2093341,11.2857143 16.214632,12.3714778 14.9859811,13.7428189 C13.7573303,15.1142693 12.1190172,17 9.01799253,17 C5.91696787,17 4.39579712,15.285769 3.05000393,13.7428189 C2.38209092,12.9231642 1.56970981,12.2264468 0.651161447,11.6856979 C0.0694813417,11.4016516 -0.166259248,10.7109498 0.124580805,10.1428571 C0.415420857,9.5747645 1.12264263,9.34453058 1.70432273,9.6285769 C2.91393513,10.2846069 3.97012017,11.1798395 4.8053474,12.2571811 C6.03399823,13.6286316 7.02870033,14.7142857 9.01799253,14.7142857 C11.0072847,14.7142857 12.0019868,13.6285222 13.2306377,12.2571811 C14.4592885,10.8858401 16.0976016,9 19.1986263,9 C22.2996509,9 23.8208217,10.714231 25.1666149,12.2571811 C26.5122961,13.8000219 27.3899678,14.7142857 29.37926,14.7142857 C31.3685522,14.7142857 32.3632543,13.6285222 33.5919051,12.2571811 C34.820556,10.8857307 36.4588691,9 39.5598937,9 C42.6609184,9 44.2406603,10.771434 45.5278824,12.1999781 C46.0655501,12.9078517 46.7176724,13.5254912 47.4587154,14.0285058 C48.0080301,14.3756614 48.1652652,15.0919569 47.8098065,15.6285496 C47.4543477,16.1650329 46.7209201,16.3185951 46.1714934,15.9714395 C45.2630242,15.3489876 44.4544507,14.5979109 43.7726509,13.7428189 C42.544,12.3713684 41.5492979,11.2857143 39.5600057,11.2857143 C37.5707135,11.2857143 36.5760114,12.3714778 35.3473606,13.7428189 C34.1184858,15.1142693 32.4802847,17 29.37926,17 Z" id="Path"></path>
            <path d="M29.37926,8 C26.2782353,8 24.7570646,6.28576897 23.4112714,4.74281886 C22.0654782,3.19986875 21.1879185,2.28571429 19.1986263,2.28571429 C17.2093341,2.28571429 16.214632,3.37147779 14.9859811,4.74281886 C13.7573303,6.11426931 12.1190172,8 9.01799253,8 C5.91696787,8 4.39579712,6.28576897 3.05000393,4.74281886 C2.38209092,3.92316421 1.56970981,3.22644682 0.651161447,2.68569788 C0.0694813417,2.40165156 -0.166259248,1.71094978 0.124580805,1.14285714 C0.415420857,0.574764502 1.12264263,0.344530577 1.70432273,0.628576897 C2.91393513,1.28460687 3.97012017,2.17983949 4.8053474,3.25718114 C6.03399823,4.62863158 7.02870033,5.71428571 9.01799253,5.71428571 C11.0072847,5.71428571 12.0019868,4.62852221 13.2306377,3.25718114 C14.4592885,1.88584007 16.0976016,0 19.1986263,0 C22.2996509,0 23.8208217,1.71423103 25.1666149,3.25718114 C26.5122961,4.80002187 27.3899678,5.71428571 29.37926,5.71428571 C31.3685522,5.71428571 32.3632543,4.62852221 33.5919051,3.25718114 C34.820556,1.88573069 36.4588691,0 39.5598937,0 C42.6609184,0 44.2406603,1.77143404 45.5278824,3.19997813 C46.0655501,3.90785174 46.7176724,4.52549116 47.4587154,5.0285058 C48.0080301,5.37566138 48.1652652,6.09195685 47.8098065,6.62854955 C47.4543477,7.16503288 46.7209201,7.31859508 46.1714934,6.97143951 C45.2630242,6.3489876 44.4544507,5.59791094 43.7726509,4.74281886 C42.544,3.37136842 41.5492979,2.28571429 39.5600057,2.28571429 C37.5707135,2.28571429 36.5760114,3.37147779 35.3473606,4.74281886 C34.1184858,6.11437868 32.4802847,8 29.37926,8 Z" id="Path"></path>
        </g>
    </g>
</svg>